<svg width="24" height="24" viewBox="0 0 24 24" fill="none" xmlns="http://www.w3.org/2000/svg">
<rect x="3" y="8" width="18" height="13" rx="2" fill="#2196F3"/>
<rect x="11" y="8" width="2" height="13" fill="#1976D2"/>
<rect x="3" y="13" width="18" height="2" fill="#1976D2"/>
<path d="M12 8C14.7614 8 17 5.76142 17 3C17 5.76142 14.7614 8 12 8ZM12 8C9.23858 8 7 5.76142 7 3C7 5.76142 9.23858 8 12 8Z" fill="#1976D2"/>
<path d="M12 3C12 4.10457 11.1046 5 10 5C8.89543 5 8 4.10457 8 3C8 1.89543 8.89543 1 10 1C11.1046 1 12 1.89543 12 3Z" fill="#1976D2"/>
<path d="M12 3C12 4.10457 12.8954 5 14 5C15.1046 5 16 4.10457 16 3C16 1.89543 15.1046 1 14 1C12.8954 1 12 1.89543 12 3Z" fill="#1976D2"/>
</svg>